<?xml version="1.0" encoding="utf-8"?>
<!-- Generator: Adobe Illustrator 22.1.0, SVG Export Plug-In . SVG Version: 6.00 Build 0)  -->
<svg version="1.1" xmlns="http://www.w3.org/2000/svg" xmlns:xlink="http://www.w3.org/1999/xlink" x="0px" y="0px"
	 viewBox="0 0 1400 1200" style="enable-background:new 0 0 1400 1200;" xml:space="preserve">
<style type="text/css">
	.st0{fill:#FFC988;}
	.st1{fill:#F9B367;}
	.st2{opacity:0.47;fill:#E28C5C;}
	.st3{fill:#FFFFFF;}
	.st4{fill:#F26A2F;}
	.st5{fill:#3D4352;}
	.st6{fill:#FF7E3E;}
	.st7{fill:#E2DEDC;}
	.st8{fill:#D35720;}
	.st9{fill:#B23909;}
	.st10{fill:#FF9769;}
</style>
<g id="BACKGROUND">
	<rect class="st0" width="1400" height="1200"/>
</g>
<g id="OBJECT">
	<rect y="784.9" class="st1" width="1400" height="415.1"/>
	<path class="st2" d="M1400,1004.8l-155.7-152.6H229c0,0-76,28.8-70,32.8c3.6,2.4,195.1,194.3,315.4,315H1400V1004.8z"/>
	<g>
		<rect x="486.3" y="157" class="st3" width="424.9" height="369.3"/>
		<path class="st4" d="M959.7,577.4v52.7l0-0.2H437.8v-52.5c0-28.3,22.9-51.2,51.2-51.2h419.4C936.8,526.1,959.7,549.1,959.7,577.4z
			"/>
		<path class="st5" d="M983.9,853.1l-48.4-164c-3.6-14.5-16.6-24.6-31.6-24.6l-410.3,0c-14.9,0-27.9,10.2-31.6,24.6l-48.4,164
			c-5.2,20.5,10.4,68.8,31.6,68.8l507.1,0C973.5,921.9,989.1,873.7,983.9,853.1z"/>
		<g>
			<path class="st3" d="M508.6,721.4H502c-8.6,0-14.6-7.2-13.2-15.9l0.5-3.2c1.3-8.6,9.3-15.5,17.7-15.5h6.5
				c8.4,0,14.4,6.9,13.3,15.5l-0.4,3.2C525.2,714.2,517.2,721.4,508.6,721.4z"/>
			<path class="st3" d="M563.9,721.4h-6.6c-8.6,0-14.9-7.2-13.8-15.9l0.4-3.2c1-8.6,8.7-15.5,17.1-15.5h6.5
				c8.4,0,14.7,6.9,13.9,15.5l-0.3,3.2C580.2,714.2,572.5,721.4,563.9,721.4z"/>
			<path class="st3" d="M619.2,721.4h-6.6c-8.6,0-15.1-7.2-14.5-15.9l0.2-3.2c0.6-8.6,8-15.5,16.5-15.5h6.5c8.4,0,15,6.9,14.6,15.5
				l-0.1,3.2C635.2,714.2,627.8,721.4,619.2,721.4z"/>
			<path class="st3" d="M674.5,721.4h-6.6c-8.6,0-15.4-7.2-15.1-15.9l0.1-3.2c0.3-8.6,7.4-15.5,15.8-15.5h6.5
				c8.4,0,15.2,6.9,15.2,15.5l0,3.2C690.2,714.2,683.1,721.4,674.5,721.4z"/>
			<path class="st3" d="M729.7,721.4h-6.6c-8.6,0-15.7-7.2-15.8-15.9l0-3.2c-0.1-8.6,6.8-15.5,15.2-15.5h6.5
				c8.4,0,15.5,6.9,15.8,15.5l0.1,3.2C745.2,714.2,738.4,721.4,729.7,721.4z"/>
			<path class="st3" d="M785,721.4h-6.6c-8.6,0-16-7.2-16.4-15.9l-0.1-3.2c-0.4-8.6,6.1-15.5,14.6-15.5h6.5
				c8.4,0,15.8,6.9,16.5,15.5l0.2,3.2C800.2,714.2,793.6,721.4,785,721.4z"/>
			<path class="st3" d="M840.3,721.4h-6.6c-8.6,0-16.3-7.2-17.1-15.9l-0.3-3.2c-0.8-8.6,5.5-15.5,13.9-15.5h6.5
				c8.4,0,16.1,6.9,17.1,15.5l0.4,3.2C855.1,714.2,848.9,721.4,840.3,721.4z"/>
			<path class="st3" d="M895.6,721.4h-6.6c-8.6,0-16.6-7.2-17.7-15.9l-0.4-3.2c-1.1-8.6,4.9-15.5,13.3-15.5h6.5
				c8.4,0,16.4,6.9,17.7,15.5l0.5,3.2C910.1,714.2,904.2,721.4,895.6,721.4z"/>
		</g>
		<g>
			<path class="st3" d="M493.5,829.1h-7.2c-9.3,0-15.6-8.4-14-18.5l0.6-3.7c1.6-9.9,10.2-18,19.3-18h7c9.1,0,15.4,8,14.2,18
				l-0.5,3.7C511.5,820.7,502.8,829.1,493.5,829.1z"/>
			<path class="st3" d="M553.2,829.1H546c-9.3,0-16-8.4-14.8-18.5l0.4-3.7c1.2-9.9,9.5-18,18.6-18h7c9.1,0,15.8,8,14.9,18l-0.3,3.7
				C570.8,820.7,562.5,829.1,553.2,829.1z"/>
			<path class="st3" d="M612.8,829.1h-7.2c-9.3,0-16.3-8.4-15.5-18.5l0.3-3.7c0.7-9.9,8.8-18,17.8-18h7c9.1,0,16.1,8,15.6,18
				l-0.2,3.7C630.2,820.7,622.2,829.1,612.8,829.1z"/>
			<path class="st3" d="M672.5,829.1h-7.2c-9.3,0-16.7-8.4-16.3-18.5l0.1-3.7c0.3-9.9,8-18,17.1-18h7c9.1,0,16.4,8,16.4,18l0,3.7
				C689.5,820.7,681.8,829.1,672.5,829.1z"/>
			<path class="st3" d="M732.2,829.1H725c-9.3,0-17-8.4-17.1-18.5l0-3.7c-0.1-9.9,7.3-18,16.4-18h7c9.1,0,16.8,8,17.1,18l0.1,3.7
				C748.8,820.7,741.5,829.1,732.2,829.1z"/>
			<path class="st3" d="M791.9,829.1h-7.2c-9.3,0-17.3-8.4-17.8-18.5l-0.2-3.7c-0.5-9.9,6.6-18,15.6-18h7c9.1,0,17.1,8,17.8,18
				l0.3,3.7C808.2,820.7,801.2,829.1,791.9,829.1z"/>
			<path class="st3" d="M851.6,829.1h-7.2c-9.3,0-17.7-8.4-18.6-18.5l-0.3-3.7c-0.9-9.9,5.8-18,14.9-18h7c9.1,0,17.4,8,18.6,18
				l0.4,3.7C867.5,820.7,860.9,829.1,851.6,829.1z"/>
			<path class="st3" d="M911.2,829.1h-7.2c-9.3,0-18-8.4-19.3-18.5l-0.5-3.7c-1.3-9.9,5.1-18,14.2-18h7c9.1,0,17.7,8,19.3,18
				l0.6,3.7C926.9,820.7,920.6,829.1,911.2,829.1z"/>
		</g>
		<g>
			<path class="st3" d="M850.4,896.1H547.1c-9.7,0-16.7-9.2-15.5-20.3l0.4-4c1.2-10.9,9.9-19.6,19.4-19.6h294.5
				c9.5,0,18.2,8.8,19.4,19.6l0.4,4C867.1,886.9,860.2,896.1,850.4,896.1z"/>
		</g>
		<g>
			<path class="st3" d="M530,773.7h-6.9c-9,0-15.2-7.8-14-17.2l0.5-3.4c1.3-9.2,9.4-16.7,18.1-16.7h6.7c8.7,0,15.1,7.4,14.1,16.7
				l-0.4,3.4C547.1,766,538.9,773.7,530,773.7z"/>
			<path class="st3" d="M587.4,773.7h-6.9c-9,0-15.6-7.8-14.7-17.2l0.3-3.4c0.9-9.2,8.7-16.7,17.5-16.7h6.7
				c8.7,0,15.4,7.4,14.7,16.7l-0.2,3.4C604.2,766,596.3,773.7,587.4,773.7z"/>
			<path class="st3" d="M644.8,773.7h-6.9c-9,0-15.9-7.8-15.4-17.2l0.2-3.4c0.5-9.2,8.1-16.7,16.8-16.7h6.7
				c8.7,0,15.7,7.4,15.4,16.7l-0.1,3.4C661.3,766,653.8,773.7,644.8,773.7z"/>
			<path class="st3" d="M702.2,773.7h-6.9c-9,0-16.2-7.8-16.1-17.2l0-3.4c0.1-9.2,7.4-16.7,16.1-16.7h6.7c8.7,0,16,7.4,16.1,16.7
				l0,3.4C718.4,766,711.2,773.7,702.2,773.7z"/>
			<path class="st3" d="M759.6,773.7h-6.9c-9,0-16.5-7.8-16.8-17.2l-0.1-3.4c-0.2-9.2,6.7-16.7,15.4-16.7h6.7
				c8.7,0,16.3,7.4,16.8,16.7l0.2,3.4C775.5,766,768.6,773.7,759.6,773.7z"/>
			<path class="st3" d="M817.1,773.7h-6.9c-9,0-16.8-7.8-17.5-17.2l-0.2-3.4c-0.6-9.2,6-16.7,14.7-16.7h6.7
				c8.7,0,16.6,7.4,17.5,16.7l0.3,3.4C832.6,766,826,773.7,817.1,773.7z"/>
			<path class="st3" d="M874.5,773.7h-6.9c-9,0-17.1-7.8-18.2-17.2l-0.4-3.4c-1-9.2,5.3-16.7,14.1-16.7h6.7
				c8.7,0,16.9,7.4,18.1,16.7l0.5,3.4C889.7,766,883.4,773.7,874.5,773.7z"/>
		</g>
		<g>
			<path class="st5" d="M502,709.3c-0.3,0-0.8-0.1-1-0.3c-0.2-0.2-0.4-0.8-0.2-1.6l0.5-3.2c0.4-2.7,3.3-5.3,5.8-5.3h6.5
				c0.3,0,0.8,0.1,1,0.3c0.2,0.3,0.3,0.8,0.3,1.5l-0.4,3.2c-0.3,2.7-3.2,5.4-5.7,5.4H502z"/>
			<path class="st5" d="M557.3,709.3c-0.6,0-1.1-0.2-1.4-0.5c-0.4-0.4-0.5-1.1-0.4-1.9l0.4-3.2c0.3-2.4,2.8-4.8,5.1-4.8h6.5
				c0.6,0,1.1,0.2,1.4,0.5c0.4,0.4,0.5,1,0.5,1.8l-0.3,3.2c-0.2,2.5-2.7,4.9-5,4.9H557.3z"/>
			<path class="st5" d="M612.6,709.3c-0.7,0-1.3-0.2-1.8-0.7c-0.4-0.4-0.8-1.1-0.7-2.2l0.2-3.2c0.2-2.2,2.3-4.3,4.4-4.3h6.5
				c0.7,0,1.3,0.2,1.8,0.7c0.3,0.4,0.8,1,0.7,2.1l-0.1,3.2c-0.1,2.3-2.2,4.4-4.4,4.4H612.6z"/>
			<path class="st5" d="M667.8,709.3c-1,0-1.7-0.5-2.1-0.9c-0.4-0.4-1-1.2-0.9-2.5l0.1-3.2c0.1-2,1.8-3.8,3.7-3.8h6.5
				c1,0,1.7,0.5,2.1,0.9c0.4,0.4,1,1.2,1,2.4l0,3.2c0,2.1-1.7,3.9-3.7,3.9H667.8z"/>
			<path class="st5" d="M723.1,709.3c-2,0-3.7-1.8-3.7-3.9l0-3.2c0-1.2,0.5-1.9,1-2.4c0.4-0.4,1.1-0.9,2.1-0.9h6.5
				c1.9,0,3.7,1.8,3.7,3.8l0.1,3.2c0,1.3-0.6,2.1-0.9,2.5c-0.4,0.4-1.1,0.9-2.1,0.9H723.1z"/>
			<path class="st5" d="M778.4,709.3c-2.1,0-4.3-2.1-4.4-4.4l-0.1-3.2c0-1.1,0.4-1.7,0.7-2.1c0.5-0.5,1.1-0.7,1.8-0.7h6.5
				c2.1,0,4.2,2.1,4.4,4.3l0.2,3.2c0.1,1.1-0.3,1.8-0.7,2.2c-0.4,0.5-1,0.7-1.8,0.7H778.4z"/>
			<path class="st5" d="M833.7,709.3c-2.3,0-4.8-2.4-5-4.9l-0.3-3.2c-0.1-0.8,0.1-1.4,0.5-1.8c0.3-0.3,0.8-0.5,1.4-0.5h6.5
				c2.3,0,4.8,2.4,5.1,4.8l0.4,3.2c0.1,0.8-0.1,1.5-0.4,1.9c-0.3,0.3-0.8,0.5-1.4,0.5H833.7z"/>
			<path class="st5" d="M888.9,709.3c-2.6,0-5.4-2.7-5.7-5.4l-0.4-3.2c-0.1-0.7,0-1.2,0.3-1.5c0.2-0.3,0.7-0.3,1-0.3h6.5
				c2.5,0,5.4,2.6,5.8,5.3l0.5,3.2c0.1,0.9,0,1.4-0.2,1.6c-0.2,0.2-0.7,0.3-1,0.3H888.9z"/>
		</g>
		<g>
			<path class="st5" d="M486.3,817c-0.8,0-1.1-0.3-1.4-0.6c-0.5-0.6-1-2-0.7-4l0.6-3.7c0.7-4.3,4.6-7.8,7.4-7.8h7
				c0.6,0,1,0.2,1.4,0.6c0.7,0.8,1,2.2,0.8,3.8l-0.5,3.7c-0.6,4.4-4.5,8-7.3,8H486.3z"/>
			<path class="st5" d="M546,817c-0.7,0-1.3-0.2-1.8-0.8c-0.8-0.9-1.2-2.5-1-4.3l0.4-3.7c0.5-4.1,3.9-7.3,6.6-7.3h7
				c0.5,0,1.1,0.1,1.8,0.8c0.8,0.9,1.2,2.4,1.1,4l-0.3,3.7c-0.4,4.2-3.8,7.5-6.5,7.5H546z"/>
			<path class="st5" d="M605.7,817c-0.3,0-1.2,0-2.1-1c-1-1.1-1.5-2.7-1.3-4.5l0.3-3.7c0.3-3.9,3.3-6.8,5.8-6.8h7c0.3,0,1.2,0,2.1,1
				c1,1,1.5,2.6,1.4,4.3l-0.2,3.7c-0.2,3.9-3.2,7-5.7,7H605.7z"/>
			<path class="st5" d="M665.4,817c-0.9,0-1.8-0.4-2.5-1.2c-1.1-1.2-1.8-2.9-1.7-4.8l0.1-3.7c0.1-3.6,2.7-6.3,5-6.3h7
				c1.1,0,2,0.6,2.5,1.2c1.1,1.1,1.8,2.8,1.7,4.6l0,3.7c0,3.7-2.6,6.5-5,6.5H665.4z"/>
			<path class="st5" d="M725,817c-2.3,0-4.9-2.8-5-6.5l0-3.7c0-1.8,0.6-3.5,1.8-4.6c0.5-0.5,1.4-1.2,2.5-1.2h7c2.3,0,4.9,2.7,5,6.3
				l0.1,3.7c0.1,1.9-0.6,3.7-1.7,4.8c-0.8,0.8-1.6,1.2-2.5,1.2H725z"/>
			<path class="st5" d="M784.7,817c-2.5,0-5.5-3.1-5.7-7l-0.2-3.7c-0.1-1.7,0.4-3.3,1.4-4.3c0.9-1,1.8-1,2.1-1h7
				c2.5,0,5.5,2.9,5.8,6.8l0.3,3.7c0.1,1.8-0.4,3.5-1.3,4.5c-0.9,1-1.8,1-2.1,1H784.7z"/>
			<path class="st5" d="M844.4,817c-2.7,0-6.2-3.3-6.5-7.5l-0.3-3.7c-0.1-1.7,0.2-3.1,1.1-4c0.6-0.7,1.3-0.8,1.8-0.8h7
				c2.6,0,6.1,3.2,6.6,7.3l0.4,3.7c0.2,1.7-0.2,3.3-1,4.3c-0.5,0.5-1,0.8-1.8,0.8H844.4z"/>
			<path class="st5" d="M904.1,817c-2.9,0-6.8-3.6-7.3-8l-0.5-3.7c-0.2-1.6,0.1-3,0.8-3.8c0.4-0.4,0.8-0.6,1.4-0.6h7
				c2.8,0,6.7,3.5,7.3,7.8l0.6,3.7c0.3,2-0.2,3.4-0.7,4c-0.2,0.3-0.6,0.6-1.4,0.6H904.1z"/>
		</g>
		<g>
			<path class="st5" d="M711,880.9h-16.8c-4.2,0-7.4-3.8-6.7-7.9l0,0c0.5-3.3,3.4-5.7,6.7-5.7H711c3.3,0,6.2,2.4,6.7,5.7h0
				C718.4,877.2,715.2,880.9,711,880.9z"/>
		</g>
		<g>
			<path class="st5" d="M523.1,761.6c-0.8,0-1.2-0.3-1.4-0.5c-0.5-0.6-0.7-1.7-0.6-2.9l0.5-3.4c0.5-3.4,3.8-6.2,6.2-6.2h6.7
				c0.6,0,1.1,0.2,1.4,0.5c0.5,0.6,0.8,1.6,0.6,2.7l-0.4,3.4c-0.4,3.5-3.7,6.4-6.1,6.4H523.1z"/>
			<path class="st5" d="M580.5,761.6c-0.7,0-1.3-0.2-1.8-0.7c-0.7-0.7-1-1.9-0.9-3.2l0.3-3.4c0.3-3.2,3.2-5.7,5.4-5.7h6.7
				c0.7,0,1.3,0.2,1.8,0.8c0.4,0.4,1,1.3,0.9,3l-0.2,3.4c-0.2,3.3-3.1,5.9-5.4,5.9H580.5z"/>
			<path class="st5" d="M637.9,761.6c-0.8,0-1.5-0.3-2.1-0.9c-0.8-0.8-1.2-2.1-1.1-3.5l0.2-3.4c0.2-3,2.6-5.2,4.7-5.2h6.7
				c0.8,0,1.5,0.3,2.1,0.9c0.5,0.5,1.2,1.5,1.2,3.3l-0.1,3.4c-0.1,2.8-2.3,5.4-4.7,5.4H637.9z"/>
			<path class="st5" d="M695.3,761.6c-1.2,0-2-0.6-2.5-1.1c-0.9-1-1.5-2.3-1.5-3.8l0-3.4c0-2.6,1.9-4.7,4-4.7h6.7c2.1,0,4,2.2,4,4.7
				l0,3.4c0,1.4-0.5,2.8-1.5,3.8c-0.5,0.5-1.4,1.1-2.5,1.1H695.3z"/>
			<path class="st5" d="M752.8,761.6c-2.4,0-4.6-2.6-4.7-5.4l-0.1-3.4c0-1.8,0.7-2.8,1.2-3.3c0.6-0.6,1.3-0.9,2.1-0.9h6.7
				c2.1,0,4.5,2.2,4.7,5.2l0.2,3.4c0.1,1.4-0.3,2.6-1.1,3.5c-0.6,0.6-1.3,0.9-2.1,0.9H752.8z"/>
			<path class="st5" d="M810.2,761.6c-2.3,0-5.2-2.6-5.4-5.9l-0.2-3.4c-0.1-1.7,0.5-2.6,0.9-3c0.5-0.5,1.1-0.8,1.8-0.8h6.7
				c2.3,0,5.1,2.5,5.4,5.7l0.3,3.4c0.1,1.3-0.2,2.4-0.9,3.2c-0.5,0.5-1,0.7-1.8,0.7H810.2z"/>
			<path class="st5" d="M867.6,761.6c-2.5,0-5.8-2.8-6.1-6.4l-0.4-3.4c-0.1-1.1,0.1-2.1,0.6-2.7c0.3-0.4,0.8-0.5,1.4-0.5h6.7
				c2.4,0,5.7,2.8,6.2,6.2l0.5,3.4c0.2,1.2-0.1,2.3-0.6,2.9c-0.2,0.2-0.6,0.5-1.4,0.5H867.6z"/>
		</g>
		<path class="st6" d="M959.7,629.9H437.9l-82.1,311.9h686L959.7,629.9z M884.8,902c-5.9,6.6-14.1,10.3-22.9,10.3H535.7
			c-8.8,0-17-3.7-22.9-10.3c-2.2-2.5-4.1-5.4-5.5-8.5h-20.3v-25.1c0-15.9-12.9-28.9-28.9-28.9h-40.4l44.5-150.5
			c3.6-14.5,16.6-24.6,31.6-24.6h410.3c14.9,0,27.9,10.1,31.6,24.6l44.5,150.5h-40.4c-15.9,0-28.9,12.9-28.9,28.9v25.1h-20.3
			C888.9,896.7,887.1,899.5,884.8,902z"/>
		<g>
			<path class="st7" d="M1032.6,476.1H364.9c-2,0-3.6,1.6-3.6,3.6v10.4c0,2,1.6,3.6,3.6,3.6h667.7c2,0,3.6-1.6,3.6-3.6v-10.4
				C1036.2,477.7,1034.6,476.1,1032.6,476.1z"/>
			<g>
				<path class="st5" d="M415,451h-31.9c-2.4,0-4.3,1.9-4.3,4.3v59.3c0,2.4,1.9,4.3,4.3,4.3H415c2.4,0,4.3-1.9,4.3-4.3v-59.3
					C419.4,452.9,417.4,451,415,451z"/>
				<path class="st5" d="M1014.4,451h-31.9c-2.4,0-4.3,1.9-4.3,4.3v59.3c0,2.4,1.9,4.3,4.3,4.3h31.9c2.4,0,4.3-1.9,4.3-4.3v-59.3
					C1018.7,452.9,1016.8,451,1014.4,451z"/>
			</g>
			<g>
				<path class="st5" d="M606.6,467.6h-73c-4.3,0-7.9,3.5-7.9,7.9v17.7c0,4.3,3.5,7.9,7.9,7.9h73c4.3,0,7.9-3.5,7.9-7.9v-17.7
					C614.4,471.1,610.9,467.6,606.6,467.6z"/>
				<path class="st5" d="M864,467.6h-73c-4.3,0-7.9,3.5-7.9,7.9v17.7c0,4.3,3.5,7.9,7.9,7.9h73c4.3,0,7.9-3.5,7.9-7.9v-17.7
					C871.8,471.1,868.3,467.6,864,467.6z"/>
			</g>
		</g>
		<path class="st5" d="M736.6,508.2V482c0-10.8-8.7-19.5-19.5-19.5h-7v45.7v20.4h-22.6v-20.4v-45.7h-7c-10.8,0-19.5,8.7-19.5,19.5
			v26.2h-25.5c-11,0-18.1,11.6-13.1,21.5c14.2,27.8,43.1,46.8,76.5,46.8c33.4,0,62.3-19,76.4-46.9c5-9.8-2.1-21.5-13.1-21.5H736.6z"
			/>
		<g>
			
				<rect x="691.9" y="153.3" transform="matrix(-1.836970e-16 1 -1 -1.836970e-16 987.4711 -410.0875)" class="st5" width="13.8" height="270.8"/>
			
				<rect x="691.9" y="158" transform="matrix(-1.836970e-16 1 -1 -1.836970e-16 945.7773 -451.7819)" class="st5" width="13.8" height="178"/>
			
				<rect x="691.9" y="201.1" transform="matrix(-1.836970e-16 1 -1 -1.836970e-16 1035.2429 -362.3157)" class="st5" width="13.8" height="270.8"/>
			
				<rect x="691.9" y="251.3" transform="matrix(-1.836970e-16 1 -1 -1.836970e-16 1085.4885 -312.0701)" class="st5" width="13.8" height="270.8"/>
			
				<rect x="691.9" y="299.2" transform="matrix(-1.836970e-16 1 -1 -1.836970e-16 1133.389 -264.1695)" class="st5" width="13.8" height="270.8"/>
		</g>
		<path class="st8" d="M1028.2,930.3H369.3c-7.5,0-13.6,6.1-13.6,13.6v37.7c0,7.5,6.1,13.6,13.6,13.6h658.9
			c7.5,0,13.6-6.1,13.6-13.6v-37.7C1041.9,936.4,1035.7,930.3,1028.2,930.3z"/>
		<path class="st5" d="M711,880.9h-16.8c-4.2,0-7.4-3.8-6.7-7.9l0,0c0.5-3.3,3.4-5.7,6.7-5.7H711c3.3,0,6.2,2.4,6.7,5.7h0
			C718.4,877.2,715.2,880.9,711,880.9z"/>
		<path class="st5" d="M859.6,585.5h-16.1c-2.3,0-4.1,1.8-4.1,4.1v10.5c0,2.3,1.8,4.1,4.1,4.1h16.1c2.3,0,4.1-1.8,4.1-4.1v-10.5
			C863.7,587.3,861.9,585.5,859.6,585.5z"/>
		<path class="st5" d="M921.9,585.5h-16.1c-2.3,0-4.1,1.8-4.1,4.1v10.5c0,2.3,1.8,4.1,4.1,4.1h16.1c2.3,0,4.1-1.8,4.1-4.1v-10.5
			C926,587.3,924.2,585.5,921.9,585.5z"/>
		<g>
			<g>
				<path class="st4" d="M220.3,691c0,0-126.2-100.9-23.7-319.2C196.6,371.8,353.7,561.4,220.3,691z"/>
				<path class="st9" d="M256.1,569.2c-1.7-1-3.9-0.5-4.9,1.2l-24.9,41.8c-0.7-19.9-2-42.4-4.1-67.4c0.6-0.3,1.1-0.8,1.5-1.4
					l21.9-41c0.9-1.7,0.3-3.9-1.5-4.8c-1.7-0.9-3.9-0.3-4.8,1.5l-18.1,33.9c-2.3-26.3-5.1-51.6-7.6-72.7l11.8-22.2
					c0.9-1.7,0.3-3.9-1.5-4.8c-1.7-0.9-3.9-0.3-4.8,1.5l-7,13.2c-3.3-26.3-5.8-43.7-5.8-44c-0.3-2-2.1-3.3-4.1-3
					c-2,0.3-3.3,2.1-3,4.1c0.1,0.7,2.7,18.4,5.9,45.1l-12-14.3c-1.3-1.5-3.5-1.7-5-0.4c-1.5,1.3-1.7,3.5-0.4,5l19,22.6
					c0,0,0.1,0,0.1,0.1c2.2,19.1,4.7,41.4,6.8,64.8L191,501.1c-1.3-1.5-3.5-1.7-5-0.4c-1.5,1.3-1.7,3.5-0.4,5l29,34.5
					c1.9,22,3.4,44.7,4.3,66.1l-27.4-36c-1.2-1.6-3.4-1.9-5-0.7c-1.6,1.2-1.9,3.4-0.7,5l33.6,44.1c1.1,39.6-0.7,73.9-7.8,90.7
					c-0.8,1.8,0.1,3.9,1.9,4.7c0.5,0.2,0.9,0.3,1.4,0.3c1.4,0,2.7-0.8,3.3-2.2c6.5-15.4,9.4-44.9,8.5-88.1c0.8-0.3,1.4-0.8,1.8-1.5
					l28.9-48.5C258.3,572.4,257.8,570.2,256.1,569.2z"/>
			</g>
			<g>
				<path class="st6" d="M295.3,742.1H140.4c-12.2,0-21.3,11.1-19,23.1l17.2,89.5c2.5,22.1,21.2,38.9,43.5,38.9h71.7
					c22.3,0,41-16.7,43.5-38.9l17.2-89.5C316.7,753.2,307.5,742.1,295.3,742.1z"/>
				<path class="st10" d="M149.8,854.6l-17.2-89.5c-2.3-12,6.9-23.1,19-23.1h-11.3c-12.2,0-21.3,11.1-19,23.1l17.2,89.5
					c2.5,22.1,21.2,38.9,43.5,38.9h11.3C171,893.5,152.3,876.8,149.8,854.6z"/>
				<path class="st8" d="M295.3,742.1h-35.6c12.2,0,21.3,11.1,19,23.1l-17.2,89.5c-2.5,22.1-21.2,38.9-43.5,38.9h35.6
					c22.3,0,41-16.7,43.5-38.9l17.2-89.5C316.7,753.2,307.5,742.1,295.3,742.1z"/>
				<path class="st6" d="M264,693.1h-92.3c-8.1,0-14.6,6.6-14.6,14.6v34.4h121.5v-34.4C278.6,699.7,272,693.1,264,693.1z"/>
				<rect x="157.1" y="728.7" class="st8" width="121.5" height="13.5"/>
			</g>
		</g>
		<g>
			<path class="st6" d="M1060.6,631.9v220.3h0c0.3,16.4,41.3,29.7,91.9,29.7c50.6,0,91.6-13.3,91.9-29.7h0V631.9H1060.6z"/>
			<path class="st8" d="M1244.3,631.9v220.3h0c-0.2,10.5-17,19.7-42.3,25V631.9H1244.3z"/>
			<ellipse class="st3" cx="1152.5" cy="631.9" rx="91.9" ry="29.9"/>
			<ellipse class="st8" cx="1152.5" cy="631.8" rx="79.4" ry="24.3"/>
			<path class="st9" d="M1152.5,607.5c-7.4,0-14.5,0.3-21.2,0.9c33.6,2.8,58.2,12.2,58.2,23.4c0,11.2-24.6,20.5-58.2,23.4
				c6.8,0.6,13.9,0.9,21.2,0.9c43.9,0,79.4-10.9,79.4-24.3C1231.9,618.4,1196.3,607.5,1152.5,607.5z"/>
			<path class="st6" d="M1262.4,685.1h-29.7c-6.7,0-12.1,5.4-12.1,12.1v9.2c0,6.7,5.4,12.1,12.1,12.1h29.1
				c15.9,0,29.4,12.5,29.8,28.4c0.5,16.5-12.8,30.1-29.2,30.1h-29.7c-6.7,0-12.1,5.4-12.1,12.1v9.2c0,6.7,5.4,12.1,12.1,12.1h29.7
				c34.6,0,62.6-28,62.6-62.6v0C1325,713.2,1297,685.1,1262.4,685.1z"/>
		</g>
	</g>
</g>
</svg>
